<svg xmlns="http://www.w3.org/2000/svg" xmlns:xlink="http://www.w3.org/1999/xlink" version="1.1" x="0px" y="0px" viewBox="0 0 100 125" enable-background="new 0 0 100 100" xml:space="preserve"><g transform="translate(0.000000,963.000000) scale(0.100000,-0.100000)"><path d="M496.8,9390.8l-1.5-1.2l-0.2-51.6c-0.1-36.8,0.1-52,0.6-53.2c1.3-3.1,6.3-3.5,7.9-0.6c0.5,0.8,0.7,17.7,0.7,52.8   c0,51.3,0,51.6-1.3,53.3C501.4,9392.3,498.9,9392.5,496.8,9390.8z"/><path d="M336.4,9358.2c-0.7-0.7-1.2-2-1.2-2.8c0-2.5,60.1-99.6,62.2-100.5c2.9-1.2,6.1,1,6.1,4.2c0,1-58.6,96.9-60.8,99.3   C341.4,9359.8,337.9,9359.7,336.4,9358.2z"/><path d="M659.1,9358.7c-0.5-0.4-14.3-22.5-30.7-49.1c-21.5-34.9-29.8-48.9-30-50.4c-0.2-1.6,0.1-2.5,1-3.3c1.7-1.5,4.7-1.5,6.1,0   c0.6,0.6,14.5,22.9,30.8,49.4c20.2,32.7,29.7,48.8,29.7,49.9C666.2,9358.7,661.8,9360.8,659.1,9358.7z"/><path d="M433.6,9323.4c-0.7-0.9-1.3-1.8-1.3-2.1c0-0.9,11.1-41.5,11.7-43.2c1.4-3.4,6.5-3.6,8.1-0.2c0.6,1.3-0.2,4.7-5.1,23.1   c-3.5,13.2-6.2,22.1-6.9,22.8C438.5,9325.6,435.2,9325.3,433.6,9323.4z"/><path d="M561.3,9323.9c-1.1-1.3-12.1-41.5-12.1-44.3c0-1.3,0.5-2.3,1.6-3.1c2.1-1.7,3.5-1.6,5.4,0.1c1.3,1.1,2.5,5,7.1,22.3   c3.1,11.6,5.6,21.6,5.6,22.3C568.9,9324.4,563.5,9326.3,561.3,9323.9z"/><path d="M316.2,9265.7c-3-3.2-2.7-3.6,15.7-22.1c14.8-14.8,17.3-17.1,18.9-17.1c3,0,4.6,1.5,4.6,4.2c0,2.2-0.9,3.1-17.1,19.4   c-14.9,14.9-17.3,17-18.9,17C318.2,9267.2,317,9266.6,316.2,9265.7z"/><path d="M662.8,9250.1c-14.9-14.9-17.1-17.3-17.1-18.9c0-2.5,2-4.6,4.4-4.6c1.8,0,3.9,1.9,19.1,17c16.2,16.2,17.1,17.2,17.1,19.4   c0,2.6-1.7,4.2-4.6,4.2C680.1,9267.2,677.6,9264.9,662.8,9250.1z"/><path d="M487.1,9247.1c-1.2-0.1-4.8-0.6-8-0.9c-54.1-6-103.8-40.8-129-90c-16.8-33-22.4-69.9-16.1-105.8c0.7-3.7,1.5-7.5,1.8-8.4   c0.9-2.2,3.4-3.2,5.7-2.4c2.7,1,3.1,2.9,2,8.4c-2.9,14.2-3.7,35.9-1.9,50.7c4,32.3,18.7,64.3,40.3,87.6   c29.3,31.6,66.5,49.4,108.4,51.9c70,4.2,134.6-38.2,158.9-104.2c10.4-28.3,12.4-58.4,5.9-89.9c-0.7-3.8,4-6.5,7.1-4   c1.4,1.2,2.8,6.8,4.4,18c1.2,8.9,1,35.4-0.3,44.3c-4.1,26.6-12.4,48.4-26.2,69.3c-26.6,40.2-68,66.8-115.4,74   C516.6,9246.9,493,9247.8,487.1,9247.1z"/><path d="M226.1,9244c-1.5-1.5-1.8-3.8-0.8-5.4c1.3-2,101-56.3,103.3-56.3c3.5,0,5.4,4.6,3.1,7.3c-1.9,2.1-100.7,55.5-102.8,55.5   C227.8,9245,226.5,9244.6,226.1,9244z"/><path d="M720.5,9217.7c-27.3-14.9-50.2-27.8-50.9-28.7c-2-2.5-0.1-6.8,3.3-6.8c1.8,0,101.8,54.1,103.1,55.8   c1.1,1.5,0.9,4.7-0.4,5.8C773,9246.3,772.1,9245.9,720.5,9217.7z"/><path d="M254.3,9153.7c-0.9-0.8-1.5-2.2-1.5-3c0-3.4,0.9-3.8,24.7-10.3c12.4-3.4,23.1-6.1,23.7-6.1c3.4,0,5.4,4.9,2.8,7.4   c-0.8,0.8-8.7,3.3-23.8,7.4c-12.4,3.4-23.1,6.1-23.6,6.1S255.1,9154.5,254.3,9153.7z"/><path d="M720.6,9148.9c-23.9-6.6-24.4-6.8-24.4-10.3c0-1.9,2.3-4.3,4.2-4.3c2.6,0,45.6,12.1,46.9,13.2c1.8,1.7,1.7,4.8-0.4,6.4   c-0.9,0.7-2.1,1.3-2.6,1.2C743.6,9155.2,733,9152.3,720.6,9148.9z"/><path d="M250.1,9092.6c-1.4-1.5-1.4-5.2,0.1-6.5c1-0.9,3.4-1,21.5-1c19.6,0,20.5,0.1,21.6,1.2c0.7,0.7,1.2,2,1.2,3.1   c0,1-0.6,2.4-1.2,3.1c-1.2,1.2-2,1.2-21.7,1.2C252.5,9093.7,251,9093.7,250.1,9092.6z"/><path d="M708.1,9092.5c-0.6-0.7-1.1-2.1-1.1-3.1c0-1,0.5-2.4,1.1-3.1c1-1.2,1.8-1.2,21.6-1.2c19.7,0,20.5,0.1,21.7,1.2   c1.7,1.7,1.6,4.4-0.2,6c-1.4,1.4-1.7,1.4-21.8,1.4C710,9093.7,709.2,9093.7,708.1,9092.5z"/><path d="M195.2,8999c-1.6-1.8-1.5-4.9,0.2-6.3c1.4-1,4-1.1,60.6-1.1c34.7,0,62.7-0.2,67.7-0.6c15.7-1.2,30.7-3.6,70.5-11.4   c31.9-6.3,51-9.2,74.7-11.5c12.3-1.2,49.6-1,63.3,0.3c23.1,2.3,42.8,5.4,81.8,12.7c35.2,6.6,48.2,8.6,64.5,9.9   c4.6,0.4,32.7,0.6,67.2,0.6c58.5,0,59.3,0,60.5,1.2c1.6,1.6,1.6,4.6,0,6.2c-1.3,1.3-1.5,1.3-67.5,1c-57.9-0.2-67.2-0.4-73.9-1.2   c-13-1.8-26.3-4.1-51.7-8.7c-31.7-5.9-43.4-7.9-57.2-9.8c-47.4-6.5-81.7-5.7-131,2.8c-5.9,1-22.1,4.1-36,6.8   c-55.6,10.8-46.6,10-125.8,10.3C196.4,9000.3,196.4,9000.3,195.2,8999z"/><path d="M285.8,8942.4c-2.1-1.7-2.3-4.8-0.4-6.5c1.2-1.1,3.1-1.2,43.5-1.5c47.6-0.4,42.7,0,81.9-6.4c24.4-3.9,35.2-5.5,47.4-6.8   c37.8-3.9,68.9-2.7,116.8,4.7c59.1,9,53.8,8.5,101.3,8.5c25.5,0,38.2,0.2,39,0.7c3.1,1.6,2.6,6.6-0.7,7.9   c-1.4,0.6-11.9,0.7-41.9,0.4c-45.8-0.3-43.2-0.1-84.6-6.5c-39.9-6.2-52.1-7.6-75.1-8.7c-27.2-1.3-55.5,1-97.2,8.1   c-40.6,6.8-41.7,6.9-87.9,7.2l-40.3,0.3L285.8,8942.4z"/><path d="M361.8,8888c-1.3-1.3-1.5-2-1.2-3.6c0.8-3.9,0-3.8,25.5-4.2c23.1-0.3,23.2-0.3,36.4-2.6c23.2-3.9,37.8-5.2,66.1-5.7   c19.9-0.4,42.1,0.3,59.3,1.9c10.5,1,11.5,1.2,32.7,4.3c14.5,2.2,14.7,2.2,35.8,2.2c20.5,0,21.2,0.1,22.8,1.3   c2.3,1.8,2.2,4.9-0.1,6.7c-1.7,1.4-1.9,1.4-24.5,1c-19.6-0.2-23.9-0.4-31.1-1.6c-36.8-6-53.8-7.1-93.1-6.6   c-32.5,0.4-41.8,1.2-68.9,5.8c-12.9,2.2-13,2.2-35.5,2.5l-22.6,0.3L361.8,8888z"/></g><text x="0" y="115" fill="#000000" font-size="5px" font-weight="bold" font-family="'Helvetica Neue', Helvetica, Arial-Unicode, Arial, Sans-serif">Created by misirlou</text><text x="0" y="120" fill="#000000" font-size="5px" font-weight="bold" font-family="'Helvetica Neue', Helvetica, Arial-Unicode, Arial, Sans-serif">from the Noun Project</text></svg>